<svg xmlns="http://www.w3.org/2000/svg" version="1.1" xmlns:xlink="http://www.w3.org/1999/xlink" xmlns:svgjs="http://svgjs.com/svgjs" width="100%" height="100%"><svg xmlns="http://www.w3.org/2000/svg" viewBox="0 0 128 128" fill-rule="evenodd" stroke-linejoin="round" stroke-miterlimit="2" xmlns:v="https://vecta.io/nano"><path d="M23.995 65.839L43.825 40h20.17l-26.66 34.739L61.995 112h-19.19l-15.77-23.838-3.04 3.957V112h-16V12h16v53.839zm94.489-20.73A36 36 0 0 0 99.998 40c-19.87 0-36.001 16.131-36.001 36s16.132 36 36.001 36c6.51 0 12.899-1.766 18.486-5.108l-8.216-13.73C107.163 95.019 103.615 96 99.998 96c-11.038 0-19.999-8.962-19.999-20s8.962-20 19.999-20a20.01 20.01 0 0 1 10.27 2.838l8.216-13.73z"/></svg><style>@media (prefers-color-scheme: light) { :root { filter: none; } }
@media (prefers-color-scheme: dark) { :root { filter: invert(100%); } }
</style></svg>