<?xml version="1.0" standalone="no"?>
<!DOCTYPE svg PUBLIC "-//W3C//DTD SVG 20010904//EN"
 "http://www.w3.org/TR/2001/REC-SVG-20010904/DTD/svg10.dtd">
<svg version="1.0" xmlns="http://www.w3.org/2000/svg"
 width="700.000000pt" height="700.000000pt" viewBox="0 0 700.000000 700.000000"
 preserveAspectRatio="xMidYMid meet">
<metadata>
Created by potrace 1.14, written by Peter Selinger 2001-2017
</metadata>
<g transform="translate(0.000000,700.000000) scale(0.100000,-0.100000)"
fill="#000000" stroke="none">
<path d="M439 6330 c-1 -20 -1 -5420 0 -5440 1 -14 53 -16 436 -15 l435 0 0
60 c0 33 1 277 1 543 l0 482 67 88 c86 113 101 129 110 117 4 -6 19 -28 33
-50 32 -48 534 -808 701 -1060 l119 -180 519 -1 c286 0 520 4 520 8 0 11 -53
92 -62 96 -5 2 -8 8 -8 12 0 5 -107 170 -238 367 -131 197 -296 446 -367 553
-71 107 -247 374 -392 594 -145 219 -265 401 -266 405 -2 6 253 346 288 385 6
6 39 49 74 96 35 47 94 123 130 170 36 47 93 121 126 165 82 107 310 404 593
772 128 167 232 306 232 310 0 6 -694 8 -1060 3 -34 0 -41 -7 -200 -216 -91
-118 -175 -227 -187 -242 -11 -15 -135 -175 -274 -357 -252 -330 -274 -359
-316 -412 -13 -15 -47 -60 -75 -100 -29 -39 -56 -72 -60 -72 -4 -1 -7 656 -7
1460 1 803 -2 1464 -6 1467 -4 4 -200 7 -436 7 -374 0 -429 -2 -430 -15z"/>
<path d="M5289 4806 c-2 -2 -32 -7 -67 -10 -168 -18 -412 -88 -581 -167 -457
-214 -817 -594 -1000 -1056 -37 -93 -75 -212 -87 -273 -3 -14 -10 -45 -15 -70
-26 -115 -38 -262 -33 -430 2 -96 6 -187 8 -202 5 -31 16 -102 22 -134 12 -67
57 -223 89 -309 207 -552 654 -985 1213 -1175 64 -21 132 -42 151 -45 19 -3
37 -8 41 -10 11 -7 185 -34 265 -42 133 -11 362 -6 451 11 12 3 39 7 60 10
194 31 476 132 631 226 l43 26 -44 71 c-24 39 -45 75 -47 80 -4 8 -350 585
-355 592 -2 2 -41 -15 -87 -37 -93 -45 -228 -87 -327 -101 -67 -10 -275 -7
-345 4 -22 4 -75 18 -118 32 -424 133 -722 487 -774 918 -38 323 78 663 305
893 215 216 500 333 798 327 172 -4 295 -33 457 -108 97 -45 93 -46 132 28 23
42 39 69 229 387 93 156 171 286 173 289 5 12 -257 136 -362 172 -107 37 -248
72 -330 83 -27 3 -69 9 -93 14 -43 8 -395 13 -403 6z"/>
</g>
</svg>
