<?xml version="1.0" encoding="UTF-8" standalone="no"?>
<!DOCTYPE svg PUBLIC "-//W3C//DTD SVG 1.1//EN" "http://www.w3.org/Graphics/SVG/1.1/DTD/svg11.dtd">
<svg width="100%" height="100%" viewBox="0 0 1476 287" version="1.1" xmlns="http://www.w3.org/2000/svg" xmlns:xlink="http://www.w3.org/1999/xlink" xml:space="preserve" xmlns:serif="http://www.serif.com/" style="fill-rule:evenodd;clip-rule:evenodd;stroke-linejoin:round;stroke-miterlimit:2;">
    <g transform="matrix(1,0,0,1,-2377,0)">
        <g id="Artboard3" transform="matrix(0.934282,0,0,1,155.641,1132.8)">
            <rect x="2377.61" y="-1132.8" width="1579.14" height="286.384" style="fill:none;"/>
            <g transform="matrix(1.191,0,0,1.11273,2134.74,-1464.8)">
                <g transform="matrix(272.675,0,0,272.675,198.813,500.674)">
                    <path d="M0.701,-0.538L0.498,-0.538L0.24,-0.327L0.323,-0.742L0.167,-0.742L0.019,-0L0.175,-0L0.201,-0.13L0.296,-0.209L0.424,-0L0.605,-0L0.42,-0.304L0.701,-0.538Z" style="fill:white;fill-rule:nonzero;"/>
                </g>
                <g transform="matrix(272.675,0,0,272.675,368.417,500.674)">
                    <path d="M0.347,-0.546C0.159,-0.546 0.03,-0.412 0.03,-0.233C0.03,-0.087 0.137,0.008 0.305,0.008C0.388,0.008 0.468,-0.014 0.53,-0.064L0.465,-0.167C0.428,-0.133 0.376,-0.117 0.322,-0.117C0.245,-0.117 0.201,-0.144 0.187,-0.197L0.602,-0.273C0.603,-0.283 0.603,-0.293 0.603,-0.303C0.603,-0.463 0.495,-0.546 0.347,-0.546ZM0.34,-0.429C0.405,-0.429 0.45,-0.397 0.458,-0.339L0.186,-0.289C0.201,-0.371 0.254,-0.429 0.34,-0.429Z" style="fill:white;fill-rule:nonzero;"/>
                </g>
                <g transform="matrix(272.675,0,0,272.675,538.293,500.674)">
                    <path d="M0.513,-0.538L0.465,-0.299C0.446,-0.205 0.392,-0.16 0.314,-0.16C0.254,-0.16 0.224,-0.191 0.224,-0.246C0.224,-0.258 0.225,-0.27 0.228,-0.284L0.279,-0.538L0.123,-0.538L0.071,-0.274C0.066,-0.25 0.064,-0.228 0.064,-0.208C0.064,-0.089 0.143,-0.026 0.257,-0.026C0.317,-0.026 0.375,-0.044 0.422,-0.082L0.418,-0.065C0.399,0.03 0.354,0.076 0.25,0.076C0.18,0.076 0.112,0.054 0.068,0.016L-0.005,0.128C0.055,0.176 0.143,0.202 0.245,0.202C0.425,0.202 0.537,0.121 0.578,-0.084L0.669,-0.538L0.513,-0.538Z" style="fill:white;fill-rule:nonzero;"/>
                </g>
                <g transform="matrix(272.675,0,0,272.675,725.893,500.674)">
                    <path d="M0.303,0.008C0.413,0.008 0.507,-0.04 0.559,-0.121L0.444,-0.193C0.412,-0.143 0.366,-0.121 0.312,-0.121C0.232,-0.121 0.187,-0.168 0.187,-0.241C0.187,-0.345 0.255,-0.417 0.347,-0.417C0.402,-0.417 0.443,-0.394 0.467,-0.344L0.599,-0.41C0.558,-0.497 0.472,-0.546 0.357,-0.546C0.165,-0.546 0.029,-0.412 0.029,-0.233C0.029,-0.088 0.136,0.008 0.303,0.008Z" style="fill:white;fill-rule:nonzero;"/>
                </g>
                <g transform="matrix(272.675,0,0,272.675,885.135,500.674)">
                    <path d="M0.3,0.008C0.49,0.008 0.625,-0.126 0.625,-0.305C0.625,-0.451 0.519,-0.546 0.354,-0.546C0.165,-0.546 0.029,-0.412 0.029,-0.233C0.029,-0.088 0.136,0.008 0.3,0.008ZM0.31,-0.121C0.232,-0.121 0.187,-0.167 0.187,-0.24C0.187,-0.345 0.253,-0.417 0.345,-0.417C0.423,-0.417 0.467,-0.371 0.467,-0.298C0.467,-0.193 0.401,-0.121 0.31,-0.121Z" style="fill:white;fill-rule:nonzero;"/>
                </g>
                <g transform="matrix(272.675,0,0,272.675,1063.46,500.674)">
                    <path d="M0.801,-0.546C0.718,-0.546 0.648,-0.515 0.596,-0.458C0.566,-0.516 0.505,-0.546 0.431,-0.546C0.368,-0.546 0.309,-0.525 0.262,-0.482L0.274,-0.538L0.126,-0.538L0.019,-0L0.175,-0L0.229,-0.274C0.249,-0.369 0.298,-0.411 0.371,-0.411C0.427,-0.411 0.456,-0.382 0.456,-0.327C0.456,-0.315 0.455,-0.302 0.452,-0.287L0.395,-0L0.551,-0L0.606,-0.276C0.625,-0.369 0.675,-0.411 0.747,-0.411C0.803,-0.411 0.832,-0.382 0.832,-0.328C0.832,-0.315 0.831,-0.302 0.828,-0.287L0.771,-0L0.927,-0L0.986,-0.298C0.991,-0.322 0.993,-0.343 0.993,-0.364C0.993,-0.483 0.916,-0.546 0.801,-0.546Z" style="fill:white;fill-rule:nonzero;"/>
                </g>
                <g transform="matrix(272.675,0,0,272.675,1349.5,500.674)">
                    <path d="M0.428,-0.546C0.362,-0.546 0.306,-0.524 0.263,-0.485L0.274,-0.538L0.126,-0.538L-0.02,0.194L0.136,0.194L0.189,-0.072C0.224,-0.017 0.285,0.008 0.363,0.008C0.53,0.008 0.661,-0.124 0.661,-0.305C0.661,-0.458 0.553,-0.546 0.428,-0.546ZM0.345,-0.121C0.267,-0.121 0.223,-0.167 0.223,-0.24C0.223,-0.345 0.289,-0.417 0.38,-0.417C0.458,-0.417 0.503,-0.371 0.503,-0.298C0.503,-0.193 0.437,-0.121 0.345,-0.121Z" style="fill:white;fill-rule:nonzero;"/>
                </g>
            </g>
        </g>
    </g>
</svg>
